<svg width="1057" height="673" viewBox="0 0 1057 673" version="1.1" xmlns="http://www.w3.org/2000/svg" xmlns:xlink="http://www.w3.org/1999/xlink" xmlns:figma="http://www.figma.com/figma/ns">
<title>Group</title>
<desc>Created using Figma</desc>
<g id="Canvas" transform="translate(356 1207)" figma:type="canvas">
<g id="Group" style="mix-blend-mode:normal;" figma:type="frame">
<g id="Vector" style="mix-blend-mode:normal;" figma:type="vector">
<use xlink:href="#path0_fill" transform="translate(-356 -1206.96)" fill="#C4C4C4" style="mix-blend-mode:normal;"/>
</g>
<g id="Nicer than Triton" style="mix-blend-mode:normal;" figma:type="text">
<use xlink:href="#path1_fill" transform="translate(265.934 -1123.96)" style="mix-blend-mode:normal;"/>
</g>
</g>
</g>
<defs>
<path id="path0_fill" d="M 81 0L 699 337.268L 81 672.13L 116.5 627.268L 125 636.268L 443 372.268L 63 342.245L 63 351.768L 0 337.268L 63 322.268L 63 331.864L 443 299.268L 125 38.2679L 116.5 48.2679L 81 0Z"/>
<path id="path1_fill" d="M 67.167 41.959C 67.6182 41.959 68.0443 42.1595 68.4453 42.5605L 152.514 131.742L 153.04 131.742L 153.04 55.1182C 153.04 51.5088 151.812 48.4759 149.355 46.0195C 149.155 45.819 148.729 45.5684 148.077 45.2676C 147.425 44.9668 147.1 44.3402 147.1 43.3877C 147.1 42.4352 147.425 41.959 148.077 41.959L 172.666 41.959C 173.318 41.959 173.644 42.4102 173.644 43.3125C 173.644 44.1647 173.518 44.6911 173.268 44.8916C 173.067 45.042 172.766 45.2175 172.365 45.418C 171.964 45.5684 171.438 45.9694 170.786 46.6211C 170.134 47.2728 169.433 48.4258 168.681 50.0801C 167.979 51.7344 167.628 53.4137 167.628 55.1182L 167.628 161.144C 167.628 162.998 167.377 164.126 166.876 164.527C 166.425 164.928 165.673 165.129 164.62 165.129C 163.567 165.129 162.715 164.828 162.063 164.227L 67.543 63.916L 67.543 151.97C 67.543 155.83 68.6458 158.863 70.8516 161.068C 71.0521 161.269 71.4782 161.52 72.1299 161.82C 72.7816 162.121 73.1074 162.748 73.1074 163.7C 73.1074 164.653 72.7816 165.129 72.1299 165.129L 47.917 165.129C 47.2653 165.129 46.9395 164.703 46.9395 163.851C 46.9395 162.948 47.0397 162.422 47.2402 162.271C 47.4909 162.071 47.8167 161.896 48.2178 161.745C 48.6188 161.545 48.9447 161.319 49.1953 161.068C 51.7018 158.562 52.9551 155.529 52.9551 151.97L 52.9551 55.1182C 52.9551 51.4085 51.777 48.3757 49.4209 46.0195C 49.2204 45.819 48.7943 45.5684 48.1426 45.2676C 47.4909 44.9668 47.165 44.3402 47.165 43.3877C 47.165 42.4352 47.4909 41.959 48.1426 41.959L 67.167 41.959ZM 207.557 56.0205L 207.557 62.1113C 207.557 62.6126 207.431 62.9635 207.181 63.1641C 206.93 63.3646 205.852 63.8158 203.947 64.5176C 202.092 65.2194 200.714 65.7959 199.812 66.2471C 198.909 66.6982 198.132 67.0241 197.48 67.2246C 196.879 67.4251 196.503 67.4502 196.353 67.2998C 196.202 67.0993 196.127 66.1217 196.127 64.3672L 196.127 57.2236C 196.127 57.0732 196.102 56.8477 196.052 56.5469C 196.052 56.2461 196.052 56.0456 196.052 55.9453C 196.102 55.845 196.127 55.6947 196.127 55.4941C 196.177 55.2936 196.302 55.0931 196.503 54.8926C 196.703 54.6921 197.731 54.2409 199.586 53.5391C 201.491 52.8372 202.895 52.2607 203.797 51.8096C 205.852 50.8571 206.98 50.5062 207.181 50.7568C 207.431 50.9574 207.557 52.7119 207.557 56.0205ZM 190.412 165.129C 189.76 165.129 189.435 164.678 189.435 163.775C 189.435 162.873 189.635 162.297 190.036 162.046C 190.437 161.795 190.964 161.545 191.615 161.294C 194.072 160.291 195.325 157.885 195.375 154.075L 195.375 112.191C 195.375 110.587 194.974 109.434 194.172 108.732C 193.37 108.031 192.518 107.655 191.615 107.604C 190.713 107.554 190.086 107.404 189.735 107.153C 189.384 106.903 189.209 106.401 189.209 105.649C 189.209 104.847 189.234 104.396 189.284 104.296C 189.384 104.196 189.535 104.095 189.735 103.995C 189.936 103.845 190.061 103.744 190.111 103.694L 203.646 93.6934C 203.997 93.4427 204.273 93.3926 204.474 93.543C 204.674 93.6432 205.276 93.8438 206.278 94.1445C 207.281 94.4453 207.782 94.9967 207.782 95.7988L 207.782 154.376C 207.782 158.035 209.01 160.341 211.467 161.294C 212.921 161.896 213.647 162.472 213.647 163.023C 213.647 164.427 213.322 165.129 212.67 165.129L 190.412 165.129ZM 288.542 145.653C 289.344 144.851 290.798 145.503 292.903 147.608C 293.054 147.759 293.029 147.984 292.828 148.285C 284.055 160.417 273.528 166.482 261.246 166.482C 256.484 166.482 251.872 165.53 247.41 163.625C 238.236 159.615 231.694 153.198 227.784 144.375C 225.779 139.863 224.776 134.524 224.776 128.358C 224.776 122.142 226.33 116.177 229.438 110.462C 232.597 104.697 237.133 100.16 243.049 96.8516C 249.014 93.543 256.108 91.8887 264.329 91.8887C 272.55 91.8887 279.594 94.8213 285.459 100.687C 285.509 100.737 285.985 101.062 286.888 101.664C 286.988 101.764 286.988 102.04 286.888 102.491L 282.827 115.124C 282.576 115.876 282.276 116.302 281.925 116.402C 281.574 116.452 280.947 116.327 280.045 116.026C 279.143 115.726 278.641 115.475 278.541 115.274C 278.441 115.074 278.24 113.871 277.939 111.665C 277.689 109.409 276.761 107.529 275.157 106.025C 271.047 102.115 265.783 100.16 259.366 100.16C 254.905 100.16 250.819 101.363 247.109 103.77C 243.4 106.126 240.542 109.159 238.537 112.868C 236.582 116.528 235.604 120.889 235.604 125.952C 235.604 131.015 236.958 135.878 239.665 140.54C 242.372 145.202 246.007 148.786 250.568 151.293C 255.18 153.749 260.018 154.978 265.081 154.978C 270.194 154.927 274.556 154.175 278.165 152.722C 281.825 151.268 285.284 148.912 288.542 145.653ZM 355.842 112.868C 352.884 104.396 346.493 100.16 336.667 100.16C 332.205 100.16 328.12 101.363 324.41 103.77C 320.701 106.126 317.843 109.159 315.838 112.868C 313.883 116.528 312.905 119.987 312.905 123.245C 312.905 126.504 313.006 128.108 313.206 128.058L 355.691 113.244L 355.691 112.793L 355.842 112.868ZM 314.86 136.028C 317.016 141.944 320.65 146.581 325.764 149.939C 330.877 153.298 336.692 154.978 343.209 154.978C 351.48 154.978 359.025 151.092 365.843 143.322C 366.896 142.32 368.45 142.846 370.505 144.901C 370.655 145.052 370.63 145.277 370.43 145.578C 364.715 153.499 360.278 158.562 357.12 160.768C 351.756 164.577 345.565 166.482 338.547 166.482C 333.785 166.482 329.173 165.53 324.711 163.625C 315.537 159.615 308.995 153.198 305.085 144.375C 303.08 139.863 302.077 134.524 302.077 128.358C 302.077 122.142 303.631 116.177 306.739 110.462C 309.897 104.697 314.434 100.16 320.35 96.8516C 326.315 93.543 333.158 91.8887 340.878 91.8887C 350.302 91.8887 358.674 96.25 365.993 104.973C 369.703 109.384 371.558 112.893 371.558 115.5L 314.86 136.028ZM 383.138 106.025L 383.213 104.672C 383.213 104.421 383.338 104.221 383.589 104.07C 383.89 103.87 384.065 103.744 384.115 103.694L 397.65 93.6934C 397.851 93.543 398.402 93.4678 399.305 93.4678C 400.257 93.4678 400.909 93.5931 401.26 93.8438C 401.611 94.0443 401.786 94.696 401.786 95.7988L 401.786 108.732C 402.087 108.231 402.488 107.68 402.989 107.078C 406.599 102.566 410.358 99.0824 414.269 96.626C 418.179 94.1696 422.64 92.9414 427.653 92.9414C 429.257 92.9414 430.135 93.1419 430.285 93.543C 431.137 95.849 431.839 98.0296 432.391 100.085L 434.722 108.958C 434.872 109.509 434.471 110.061 433.519 110.612C 432.616 111.114 431.914 111.339 431.413 111.289C 430.912 111.239 430.385 110.763 429.834 109.86L 429.007 108.507C 426.3 106 423.142 105.023 419.532 105.574C 415.973 106.076 412.589 107.379 409.381 109.484C 406.223 111.59 403.892 113.871 402.388 116.327C 402.338 116.427 402.212 116.628 402.012 116.929C 401.861 117.179 401.786 117.355 401.786 117.455L 401.786 151.97C 401.786 152.22 401.761 152.772 401.711 153.624C 401.711 154.426 401.711 154.952 401.711 155.203C 402.112 158.361 403.19 160.316 404.944 161.068C 406.699 161.82 407.601 162.472 407.651 163.023C 407.651 164.427 407.326 165.129 406.674 165.129L 384.416 165.129C 383.764 165.129 383.438 164.678 383.438 163.775C 383.438 162.873 383.639 162.297 384.04 162.046C 384.441 161.795 384.942 161.545 385.544 161.294C 386.196 161.043 386.697 160.743 387.048 160.392C 387.8 159.64 388.376 158.787 388.777 157.835C 389.229 156.832 389.429 155.654 389.379 154.301C 389.379 152.947 389.379 152.17 389.379 151.97L 389.379 112.191C 389.329 110.537 388.903 109.384 388.101 108.732C 387.349 108.031 386.521 107.655 385.619 107.604C 384.717 107.554 384.115 107.429 383.814 107.229C 383.363 106.878 383.138 106.477 383.138 106.025ZM 155.63 240.27C 155.78 239.267 156.682 238.766 158.337 238.766C 160.041 238.766 160.893 239.267 160.893 240.27L 160.893 253.655L 174.203 253.655C 176.76 253.655 178.038 253.981 178.038 254.632L 178.038 261.25C 178.038 261.901 176.76 262.227 174.203 262.227L 160.893 262.227L 160.893 308.923C 160.893 314.889 162.648 318.223 166.157 318.924C 168.814 319.476 171.571 318.473 174.429 315.917C 175.582 314.864 176.384 314.613 176.835 315.165C 177.336 315.716 177.687 316.142 177.888 316.443C 178.088 316.744 178.188 317.044 178.188 317.345C 178.188 317.596 178.188 317.796 178.188 317.947C 178.238 318.197 177.963 318.624 177.361 319.225L 175.782 320.579C 170.569 325.09 165.48 327.146 160.517 326.745C 155.605 326.344 152.146 323.461 150.141 318.097C 149.038 315.19 148.486 311.655 148.486 307.495L 148.486 262.227L 145.027 262.227C 142.471 262.227 141.192 261.901 141.192 261.25L 141.192 254.632C 141.192 253.981 142.245 253.655 144.35 253.655C 148.06 253.655 150.717 252.351 152.321 249.745C 153.975 247.138 155.078 243.98 155.63 240.27ZM 186.309 214.704L 186.385 213.35C 186.385 213.2 186.685 212.874 187.287 212.373L 200.822 202.372C 201.023 202.221 201.574 202.146 202.476 202.146C 203.379 202.146 204.005 202.271 204.356 202.522C 204.707 202.723 204.883 203.374 204.883 204.477L 204.883 261.55C 206.587 260.548 207.865 259.821 208.718 259.37L 211.049 258.167C 218.117 254.657 224.659 252.903 230.675 252.903C 236.74 252.903 242.706 255.058 248.571 259.37C 251.228 261.325 253.384 263.706 255.038 266.513C 256.742 269.27 257.595 272.153 257.595 275.161L 257.595 312.157C 257.595 312.407 257.57 312.959 257.519 313.811C 257.519 314.613 257.544 315.14 257.595 315.39C 257.946 318.599 258.998 320.579 260.753 321.331C 262.557 322.032 263.46 322.659 263.46 323.211C 263.46 324.614 263.134 325.316 262.482 325.316L 240.3 325.316C 239.648 325.316 239.322 324.865 239.322 323.962C 239.322 323.06 239.523 322.484 239.924 322.233C 240.325 321.982 240.851 321.732 241.503 321.481C 242.155 321.23 242.681 320.905 243.082 320.503C 243.483 320.102 243.834 319.651 244.135 319.15C 244.486 318.649 244.711 318.072 244.811 317.42C 244.962 316.769 245.037 316.293 245.037 315.992C 245.087 315.641 245.087 314.989 245.037 314.037C 245.037 313.084 245.037 312.458 245.037 312.157L 245.037 277.041C 245.037 273.983 244.009 271.326 241.954 269.07C 238.144 264.909 232.755 262.829 225.787 262.829C 218.869 262.829 211.901 264.583 204.883 268.092L 204.883 312.157C 204.883 312.407 204.858 312.959 204.807 313.811C 204.807 314.613 204.807 315.14 204.807 315.39C 205.209 318.599 206.286 320.579 208.041 321.331C 209.846 322.032 210.748 322.659 210.748 323.211C 210.748 324.614 210.422 325.316 209.77 325.316L 187.588 325.316C 186.936 325.316 186.61 324.865 186.61 323.962C 186.61 323.06 186.811 322.484 187.212 322.233C 187.613 321.982 188.139 321.732 188.791 321.481C 189.443 321.23 189.944 320.93 190.295 320.579C 191.849 319.025 192.601 317.295 192.551 315.39C 192.551 313.435 192.551 312.357 192.551 312.157L 192.551 220.87C 192.551 219.266 192.15 218.113 191.348 217.411C 190.545 216.709 189.693 216.333 188.791 216.283C 187.889 216.233 187.287 216.082 186.986 215.832C 186.535 215.531 186.309 215.155 186.309 214.704ZM 285.266 306.292C 285.266 309.65 286.72 312.182 289.628 313.886C 292.535 315.541 295.493 316.368 298.501 316.368C 301.509 316.368 303.739 316.242 305.193 315.992C 306.697 315.741 308.226 315.29 309.78 314.638C 312.688 313.435 315.269 312.182 317.525 310.878C 317.525 310.878 318.703 310.227 321.059 308.923L 316.698 288.921C 314.893 289.623 312.663 290.4 310.006 291.253L 302.787 293.508C 291.107 297.017 285.266 301.279 285.266 306.292ZM 315.269 281.176C 313.766 267.441 309.78 260.573 303.313 260.573C 299.353 260.573 295.894 262.002 292.936 264.859C 290.029 267.666 288.575 270.975 288.575 274.785L 289.252 277.868C 289.252 278.269 288.751 278.895 287.748 279.748C 286.795 280.6 286.144 280.876 285.793 280.575L 277.07 269.371C 277.07 268.719 277.622 267.992 278.724 267.19C 279.877 266.388 280.855 265.586 281.657 264.784L 283.462 263.054C 286.069 260.447 287.898 258.793 288.951 258.091L 292.636 255.685C 296.245 253.329 300.255 252.151 304.667 252.151C 311.134 252.151 316.046 253.905 319.405 257.415C 321.711 259.821 323.315 262.202 324.218 264.558C 325.12 266.864 325.772 268.744 326.173 270.198C 327.025 273.306 327.727 276.915 328.278 281.026L 329.105 286.816C 329.406 289.122 329.707 291.278 330.008 293.283C 330.359 295.288 330.584 296.667 330.684 297.419C 330.785 298.12 331.035 299.399 331.436 301.253C 331.837 303.058 332.213 304.562 332.564 305.765C 333.617 309.324 334.845 312.006 336.249 313.811C 337.653 315.566 339.207 316.443 340.911 316.443C 342.666 316.443 343.894 315.942 344.596 314.939C 345.899 313.034 346.851 312.082 347.453 312.082C 347.754 312.082 348.255 312.433 348.957 313.134C 349.659 313.836 350.01 314.363 350.01 314.713C 350.01 315.064 349.208 316.242 347.603 318.248C 346.049 320.203 344.27 322.133 342.265 324.038C 340.309 325.943 338.906 326.895 338.054 326.895C 334.845 326.895 331.787 325.642 328.88 323.135C 326.022 320.579 324.268 317.897 323.616 315.089C 321.962 316.593 319.155 318.423 315.194 320.579C 307.374 324.79 301.108 326.895 296.395 326.895C 291.683 326.895 287.698 326.218 284.439 324.865C 281.231 323.511 278.549 321.431 276.393 318.624C 274.288 315.816 273.235 312.884 273.235 309.826C 273.235 306.768 273.661 304.211 274.514 302.156C 275.366 300.1 276.469 298.346 277.822 296.892C 279.176 295.388 280.855 294.01 282.86 292.756C 284.865 291.453 286.896 290.375 288.951 289.523C 293.262 287.768 298.025 286.214 303.238 284.861C 308.502 283.457 312.512 282.229 315.269 281.176ZM 355.24 325.316C 354.589 325.316 354.263 324.865 354.263 323.962C 354.263 323.06 354.463 322.484 354.864 322.233C 355.315 321.982 355.842 321.732 356.443 321.481C 357.095 321.23 357.596 320.93 357.947 320.579C 359.501 319.025 360.253 317.295 360.203 315.39C 360.203 313.435 360.203 312.357 360.203 312.157L 360.203 272.378C 360.203 270.774 359.802 269.621 359 268.919C 358.198 268.218 357.346 267.842 356.443 267.792C 355.541 267.741 354.939 267.616 354.639 267.416C 354.388 267.165 354.213 266.939 354.112 266.739C 354.062 266.538 354.012 266.363 353.962 266.212C 353.962 266.062 353.962 265.836 353.962 265.536C 354.012 265.235 354.037 265.009 354.037 264.859C 354.037 264.709 354.062 264.583 354.112 264.483C 354.213 264.383 354.363 264.282 354.563 264.182C 354.764 264.032 354.889 263.932 354.939 263.881L 368.475 253.88C 368.675 253.73 369.227 253.655 370.129 253.655C 371.031 253.655 371.683 253.78 372.084 254.031C 372.485 254.231 372.686 254.883 372.686 255.986L 372.686 261.55L 376.521 259.294L 378.776 258.167C 385.744 254.657 392.261 252.903 398.327 252.903C 404.393 252.903 410.358 255.058 416.224 259.37C 418.881 261.325 421.036 263.706 422.69 266.513C 424.395 269.27 425.247 272.153 425.247 275.161L 425.247 315.39C 425.247 316.493 425.548 317.671 426.149 318.924C 426.751 320.128 427.729 321.005 429.082 321.556C 430.436 322.108 431.112 322.659 431.112 323.211C 431.112 324.614 430.786 325.316 430.135 325.316L 408.103 325.316C 407.451 325.316 407.125 324.865 407.125 323.962C 407.125 323.06 407.326 322.484 407.727 322.233C 408.178 321.982 408.704 321.732 409.306 321.481C 409.957 321.23 410.484 320.905 410.885 320.503C 411.336 320.102 411.712 319.651 412.013 319.15C 412.313 318.649 412.514 318.072 412.614 317.42C 412.765 316.719 412.84 316.217 412.84 315.917C 412.89 315.566 412.89 314.939 412.84 314.037C 412.84 313.084 412.84 312.458 412.84 312.157L 412.84 277.041C 412.84 274.033 411.837 271.401 409.832 269.145C 405.972 264.934 400.558 262.829 393.59 262.829C 386.622 262.829 379.629 264.583 372.61 268.092L 372.61 315.39C 372.61 316.493 372.911 317.671 373.513 318.924C 374.114 320.128 375.092 321.005 376.445 321.556C 377.799 322.108 378.476 322.659 378.476 323.211C 378.476 324.614 378.15 325.316 377.498 325.316L 355.24 325.316ZM 129.152 362.333C 129.653 362.333 130.079 362.985 130.43 364.288C 130.781 365.541 131.408 367.321 132.31 369.627C 132.31 369.627 133.112 371.657 134.716 375.718C 135.418 377.472 135.769 378.45 135.769 378.651C 135.769 378.851 135.393 379.077 134.641 379.327C 133.939 379.578 133.488 379.703 133.288 379.703C 132.937 379.703 132.486 379.352 131.934 378.651C 131.433 377.899 130.531 377.021 129.227 376.019C 127.974 375.016 124.515 374.515 118.85 374.515L 76.5153 374.515L 76.5153 472.344C 76.5153 476.003 77.7184 479.036 80.1246 481.443C 80.3252 481.643 80.7513 481.894 81.403 482.194C 82.0546 482.495 82.3805 483.122 82.3805 484.074C 82.3805 485.027 82.0546 485.503 81.403 485.503L 57.0397 485.503C 56.388 485.503 56.0621 485.077 56.0621 484.225C 56.0621 483.322 56.1624 482.796 56.3629 482.646C 56.6136 482.445 56.9394 482.27 57.3405 482.119C 57.7415 481.919 58.2428 481.518 58.8444 480.916C 59.4961 480.264 60.1728 479.111 60.8746 477.457C 61.5765 475.753 61.9274 474.048 61.9274 472.344L 61.9274 374.515L 19.5924 374.515C 12.524 374.515 8.26298 375.718 6.8092 378.124C 6.10738 379.127 5.60608 379.653 5.3053 379.703C 5.00452 379.703 4.47815 379.578 3.7262 379.327C 3.02437 379.077 2.67346 378.851 2.67346 378.651C 2.67346 378.45 3.02437 377.472 3.7262 375.718L 6.13245 369.627C 7.03479 367.371 7.63635 365.667 7.93713 364.514C 8.28805 363.311 8.73922 362.584 9.29065 362.333L 129.152 362.333ZM 116.549 426.4L 116.624 425.046C 116.624 424.795 116.75 424.595 117 424.444C 117.301 424.244 117.477 424.119 117.527 424.068L 131.062 414.068C 131.262 413.917 131.814 413.842 132.716 413.842C 133.669 413.842 134.32 413.967 134.671 414.218C 135.022 414.418 135.198 415.07 135.198 416.173L 135.198 429.107C 135.498 428.605 135.9 428.054 136.401 427.452C 140.01 422.941 143.77 419.457 147.68 417C 151.59 414.544 156.052 413.316 161.065 413.316C 162.669 413.316 163.546 413.516 163.697 413.917C 164.549 416.223 165.251 418.404 165.802 420.459L 168.133 429.332C 168.284 429.884 167.883 430.435 166.93 430.986C 166.028 431.488 165.326 431.713 164.825 431.663C 164.323 431.613 163.797 431.137 163.246 430.234L 162.418 428.881C 159.711 426.374 156.553 425.397 152.944 425.948C 149.385 426.45 146.001 427.753 142.792 429.859C 139.634 431.964 137.303 434.245 135.799 436.701C 135.749 436.802 135.624 437.002 135.423 437.303C 135.273 437.554 135.198 437.729 135.198 437.829L 135.198 472.344C 135.198 472.595 135.173 473.146 135.122 473.998C 135.122 474.8 135.122 475.327 135.122 475.577C 135.524 478.735 136.601 480.691 138.356 481.443C 140.11 482.194 141.013 482.846 141.063 483.398C 141.063 484.801 140.737 485.503 140.085 485.503L 117.828 485.503C 117.176 485.503 116.85 485.052 116.85 484.15C 116.85 483.247 117.051 482.671 117.452 482.42C 117.853 482.169 118.354 481.919 118.955 481.668C 119.607 481.417 120.108 481.117 120.459 480.766C 121.211 480.014 121.788 479.162 122.189 478.209C 122.64 477.207 122.841 476.028 122.79 474.675C 122.79 473.321 122.79 472.544 122.79 472.344L 122.79 432.566C 122.74 430.911 122.314 429.758 121.512 429.107C 120.76 428.405 119.933 428.029 119.031 427.979C 118.128 427.929 117.527 427.803 117.226 427.603C 116.775 427.252 116.549 426.851 116.549 426.4ZM 202.227 376.395L 202.227 382.485C 202.227 382.987 202.101 383.338 201.851 383.538C 201.6 383.739 200.522 384.19 198.617 384.892C 196.763 385.594 195.384 386.17 194.482 386.621C 193.579 387.072 192.802 387.398 192.151 387.599C 191.549 387.799 191.173 387.824 191.023 387.674C 190.872 387.473 190.797 386.496 190.797 384.741L 190.797 377.598C 190.797 377.447 190.772 377.222 190.722 376.921C 190.722 376.62 190.722 376.42 190.722 376.319C 190.772 376.219 190.797 376.069 190.797 375.868C 190.847 375.668 190.973 375.467 191.173 375.267C 191.374 375.066 192.401 374.615 194.256 373.913C 196.161 373.211 197.565 372.635 198.467 372.184C 200.522 371.231 201.65 370.88 201.851 371.131C 202.101 371.331 202.227 373.086 202.227 376.395ZM 185.082 485.503C 184.431 485.503 184.105 485.052 184.105 484.15C 184.105 483.247 184.305 482.671 184.706 482.42C 185.107 482.169 185.634 481.919 186.285 481.668C 188.742 480.665 189.995 478.259 190.045 474.449L 190.045 432.566C 190.045 430.961 189.644 429.808 188.842 429.107C 188.04 428.405 187.188 428.029 186.285 427.979C 185.383 427.929 184.756 427.778 184.405 427.527C 184.055 427.277 183.879 426.776 183.879 426.024C 183.879 425.221 183.904 424.77 183.954 424.67C 184.055 424.57 184.205 424.47 184.405 424.369C 184.606 424.219 184.731 424.119 184.781 424.068L 198.317 414.068C 198.668 413.817 198.943 413.767 199.144 413.917C 199.344 414.017 199.946 414.218 200.948 414.519C 201.951 414.819 202.452 415.371 202.452 416.173L 202.452 474.75C 202.452 478.41 203.681 480.716 206.137 481.668C 207.591 482.27 208.318 482.846 208.318 483.398C 208.318 484.801 207.992 485.503 207.34 485.503L 185.082 485.503ZM 236.323 400.457C 236.474 399.455 237.376 398.953 239.03 398.953C 240.735 398.953 241.587 399.455 241.587 400.457L 241.587 413.842L 254.897 413.842C 257.453 413.842 258.732 414.168 258.732 414.819L 258.732 421.437C 258.732 422.088 257.453 422.414 254.897 422.414L 241.587 422.414L 241.587 469.11C 241.587 475.076 243.342 478.41 246.851 479.111C 249.508 479.663 252.265 478.66 255.122 476.104C 256.275 475.051 257.077 474.8 257.528 475.352C 258.03 475.903 258.381 476.329 258.581 476.63C 258.782 476.931 258.882 477.232 258.882 477.532C 258.882 477.783 258.882 477.984 258.882 478.134C 258.932 478.385 258.656 478.811 258.055 479.412L 256.476 480.766C 251.262 485.277 246.174 487.333 241.211 486.932C 236.298 486.531 232.839 483.648 230.834 478.284C 229.731 475.377 229.18 471.843 229.18 467.682L 229.18 422.414L 225.721 422.414C 223.164 422.414 221.886 422.088 221.886 421.437L 221.886 414.819C 221.886 414.168 222.939 413.842 225.044 413.842C 228.754 413.842 231.411 412.539 233.015 409.932C 234.669 407.325 235.772 404.167 236.323 400.457ZM 289.068 425.572C 285.81 427.628 283.404 430.335 281.85 433.693C 280.296 437.002 279.519 441.213 279.519 446.326C 279.519 451.44 280.922 456.553 283.729 461.666C 286.587 466.779 290.472 470.84 295.385 473.848C 300.348 476.805 305.26 478.284 310.123 478.284C 315.036 478.284 319.021 477.181 322.079 474.976C 325.187 472.77 327.543 469.913 329.147 466.403C 330.802 462.894 331.629 459.034 331.629 454.823C 331.629 445.95 328.797 438.331 323.132 431.964C 317.517 425.597 309.973 422.414 300.498 422.414C 296.137 422.414 292.327 423.467 289.068 425.572ZM 279.744 476.329C 276.436 473.121 273.754 469.261 271.698 464.749C 269.693 460.237 268.69 454.899 268.69 448.733C 268.69 442.567 270.27 436.576 273.428 430.761C 276.586 424.946 281.123 420.409 287.038 417.151C 292.953 413.892 299.094 412.263 305.461 412.263C 317.091 412.263 326.34 415.922 333.208 423.241C 340.076 430.51 343.51 439.358 343.51 449.785C 343.56 460.212 339.951 469.01 332.682 476.179C 325.413 483.297 316.239 486.857 305.16 486.857C 300.448 486.857 295.861 485.904 291.399 483.999C 286.988 482.094 283.103 479.538 279.744 476.329ZM 355.24 485.503C 354.589 485.503 354.263 485.052 354.263 484.15C 354.263 483.247 354.463 482.671 354.864 482.42C 355.315 482.169 355.842 481.919 356.443 481.668C 357.095 481.417 357.596 481.117 357.947 480.766C 359.501 479.212 360.253 477.482 360.203 475.577C 360.203 473.622 360.203 472.544 360.203 472.344L 360.203 432.566C 360.203 430.961 359.802 429.808 359 429.107C 358.198 428.405 357.346 428.029 356.443 427.979C 355.541 427.929 354.939 427.803 354.639 427.603C 354.388 427.352 354.213 427.126 354.112 426.926C 354.062 426.725 354.012 426.55 353.962 426.4C 353.962 426.249 353.962 426.024 353.962 425.723C 354.012 425.422 354.037 425.196 354.037 425.046C 354.037 424.896 354.062 424.77 354.112 424.67C 354.213 424.57 354.363 424.47 354.563 424.369C 354.764 424.219 354.889 424.119 354.939 424.068L 368.475 414.068C 368.675 413.917 369.227 413.842 370.129 413.842C 371.031 413.842 371.683 413.967 372.084 414.218C 372.485 414.418 372.686 415.07 372.686 416.173L 372.686 421.737L 376.521 419.482L 378.776 418.354C 385.744 414.845 392.261 413.09 398.327 413.09C 404.393 413.09 410.358 415.246 416.224 419.557C 418.881 421.512 421.036 423.893 422.69 426.7C 424.395 429.457 425.247 432.34 425.247 435.348L 425.247 475.577C 425.247 476.68 425.548 477.858 426.149 479.111C 426.751 480.315 427.729 481.192 429.082 481.743C 430.436 482.295 431.112 482.846 431.112 483.398C 431.112 484.801 430.786 485.503 430.135 485.503L 408.103 485.503C 407.451 485.503 407.125 485.052 407.125 484.15C 407.125 483.247 407.326 482.671 407.727 482.42C 408.178 482.169 408.704 481.919 409.306 481.668C 409.957 481.417 410.484 481.092 410.885 480.691C 411.336 480.29 411.712 479.838 412.013 479.337C 412.313 478.836 412.514 478.259 412.614 477.608C 412.765 476.906 412.84 476.404 412.84 476.104C 412.89 475.753 412.89 475.126 412.84 474.224C 412.84 473.271 412.84 472.645 412.84 472.344L 412.84 437.228C 412.84 434.22 411.837 431.588 409.832 429.332C 405.972 425.121 400.558 423.016 393.59 423.016C 386.622 423.016 379.629 424.77 372.61 428.279L 372.61 475.577C 372.61 476.68 372.911 477.858 373.513 479.111C 374.114 480.315 375.092 481.192 376.445 481.743C 377.799 482.295 378.476 482.846 378.476 483.398C 378.476 484.801 378.15 485.503 377.498 485.503L 355.24 485.503Z"/>
</defs>
</svg>
