<svg width="1456" height="235" viewBox="0 0 1456 235" version="1.1" xmlns="http://www.w3.org/2000/svg" xmlns:xlink="http://www.w3.org/1999/xlink" xmlns:figma="http://www.figma.com/figma/ns">
<title>Group</title>
<desc>Created using Figma</desc>
<g id="Canvas" transform="translate(327 1204)" figma:type="canvas">
<g id="Group" style="mix-blend-mode:normal;" figma:type="frame">
<g id="Vector" style="mix-blend-mode:normal;" figma:type="vector">
<use xlink:href="#path0_fill" transform="translate(-327 -1204)" fill="#C4C4C4" style="mix-blend-mode:normal;"/>
</g>
<g id="Nicer than Triton" style="mix-blend-mode:normal;" figma:type="text">
<use xlink:href="#path1_fill" transform="translate(-63 -1178)" style="mix-blend-mode:normal;"/>
</g>
</g>
</g>
<defs>
<path id="path0_fill" d="M 28.2747 0L 244 117.921L 28.2747 235L 40.6667 219.315L 43.6338 222.461L 154.638 130.158L 21.9914 119.661L 21.9914 122.99L 0 117.921L 21.9914 112.676L 21.9914 116.031L 154.638 104.635L 43.6338 13.3798L 40.6667 16.8762L 28.2747 0Z"/>
<path id="path1_fill" d="M 28.3486 41.959C 28.7998 41.959 29.2259 42.1595 29.627 42.5605L 113.695 131.742L 114.222 131.742L 114.222 55.1182C 114.222 51.5088 112.993 48.4759 110.537 46.0195C 110.337 45.819 109.91 45.5684 109.259 45.2676C 108.607 44.9668 108.281 44.3402 108.281 43.3877C 108.281 42.4352 108.607 41.959 109.259 41.959L 133.848 41.959C 134.499 41.959 134.825 42.4102 134.825 43.3125C 134.825 44.1647 134.7 44.6911 134.449 44.8916C 134.249 45.042 133.948 45.2175 133.547 45.418C 133.146 45.5684 132.619 45.9694 131.968 46.6211C 131.316 47.2728 130.614 48.4258 129.862 50.0801C 129.16 51.7344 128.81 53.4137 128.81 55.1182L 128.81 161.144C 128.81 162.998 128.559 164.126 128.058 164.527C 127.606 164.928 126.854 165.129 125.802 165.129C 124.749 165.129 123.897 164.828 123.245 164.227L 28.7246 63.916L 28.7246 151.97C 28.7246 155.83 29.8275 158.863 32.0332 161.068C 32.2337 161.269 32.6598 161.52 33.3115 161.82C 33.9632 162.121 34.2891 162.748 34.2891 163.7C 34.2891 164.653 33.9632 165.129 33.3115 165.129L 9.09863 165.129C 8.44694 165.129 8.12109 164.703 8.12109 163.851C 8.12109 162.948 8.22135 162.422 8.42188 162.271C 8.67253 162.071 8.99837 161.896 9.39941 161.745C 9.80046 161.545 10.1263 161.319 10.377 161.068C 12.8835 158.562 14.1367 155.529 14.1367 151.97L 14.1367 55.1182C 14.1367 51.4085 12.9587 48.3757 10.6025 46.0195C 10.402 45.819 9.97591 45.5684 9.32422 45.2676C 8.67253 44.9668 8.34668 44.3402 8.34668 43.3877C 8.34668 42.4352 8.67253 41.959 9.32422 41.959L 28.3486 41.959ZM 168.738 56.0205L 168.738 62.1113C 168.738 62.6126 168.613 62.9635 168.362 63.1641C 168.112 63.3646 167.034 63.8158 165.129 64.5176C 163.274 65.2194 161.896 65.7959 160.993 66.2471C 160.091 66.6982 159.314 67.0241 158.662 67.2246C 158.061 67.4251 157.685 67.4502 157.534 67.2998C 157.384 67.0993 157.309 66.1217 157.309 64.3672L 157.309 57.2236C 157.309 57.0732 157.284 56.8477 157.233 56.5469C 157.233 56.2461 157.233 56.0456 157.233 55.9453C 157.284 55.845 157.309 55.6947 157.309 55.4941C 157.359 55.2936 157.484 55.0931 157.685 54.8926C 157.885 54.6921 158.913 54.2409 160.768 53.5391C 162.673 52.8372 164.076 52.2607 164.979 51.8096C 167.034 50.8571 168.162 50.5062 168.362 50.7568C 168.613 50.9574 168.738 52.7119 168.738 56.0205ZM 151.594 165.129C 150.942 165.129 150.616 164.678 150.616 163.775C 150.616 162.873 150.817 162.297 151.218 162.046C 151.619 161.795 152.145 161.545 152.797 161.294C 155.253 160.291 156.507 157.885 156.557 154.075L 156.557 112.191C 156.557 110.587 156.156 109.434 155.354 108.732C 154.551 108.031 153.699 107.655 152.797 107.604C 151.895 107.554 151.268 107.404 150.917 107.153C 150.566 106.903 150.391 106.401 150.391 105.649C 150.391 104.847 150.416 104.396 150.466 104.296C 150.566 104.196 150.716 104.095 150.917 103.995C 151.118 103.845 151.243 103.744 151.293 103.694L 164.828 93.6934C 165.179 93.4427 165.455 93.3926 165.655 93.543C 165.856 93.6432 166.457 93.8438 167.46 94.1445C 168.463 94.4453 168.964 94.9967 168.964 95.7988L 168.964 154.376C 168.964 158.035 170.192 160.341 172.648 161.294C 174.102 161.896 174.829 162.472 174.829 163.023C 174.829 164.427 174.503 165.129 173.852 165.129L 151.594 165.129ZM 249.724 145.653C 250.526 144.851 251.979 145.503 254.085 147.608C 254.235 147.759 254.21 147.984 254.01 148.285C 245.237 160.417 234.71 166.482 222.428 166.482C 217.665 166.482 213.053 165.53 208.592 163.625C 199.418 159.615 192.876 153.198 188.966 144.375C 186.961 139.863 185.958 134.524 185.958 128.358C 185.958 122.142 187.512 116.177 190.62 110.462C 193.778 104.697 198.315 100.16 204.23 96.8516C 210.196 93.543 217.289 91.8887 225.511 91.8887C 233.732 91.8887 240.775 94.8213 246.641 100.687C 246.691 100.737 247.167 101.062 248.069 101.664C 248.17 101.764 248.17 102.04 248.069 102.491L 244.009 115.124C 243.758 115.876 243.457 116.302 243.106 116.402C 242.756 116.452 242.129 116.327 241.227 116.026C 240.324 115.726 239.823 115.475 239.723 115.274C 239.622 115.074 239.422 113.871 239.121 111.665C 238.87 109.409 237.943 107.529 236.339 106.025C 232.228 102.115 226.965 100.16 220.548 100.16C 216.086 100.16 212.001 101.363 208.291 103.77C 204.581 106.126 201.724 109.159 199.719 112.868C 197.764 116.528 196.786 120.889 196.786 125.952C 196.786 131.015 198.14 135.878 200.847 140.54C 203.554 145.202 207.188 148.786 211.75 151.293C 216.362 153.749 221.2 154.978 226.263 154.978C 231.376 154.927 235.737 154.175 239.347 152.722C 243.006 151.268 246.465 148.912 249.724 145.653ZM 317.023 112.868C 314.066 104.396 307.674 100.16 297.849 100.16C 293.387 100.16 289.301 101.363 285.592 103.77C 281.882 106.126 279.025 109.159 277.02 112.868C 275.064 116.528 274.087 119.987 274.087 123.245C 274.087 126.504 274.187 128.108 274.388 128.058L 316.873 113.244L 316.873 112.793L 317.023 112.868ZM 276.042 136.028C 278.198 141.944 281.832 146.581 286.945 149.939C 292.059 153.298 297.874 154.978 304.391 154.978C 312.662 154.978 320.207 151.092 327.024 143.322C 328.077 142.32 329.631 142.846 331.687 144.901C 331.837 145.052 331.812 145.277 331.611 145.578C 325.896 153.499 321.46 158.562 318.302 160.768C 312.938 164.577 306.747 166.482 299.729 166.482C 294.966 166.482 290.354 165.53 285.893 163.625C 276.719 159.615 270.177 153.198 266.267 144.375C 264.261 139.863 263.259 134.524 263.259 128.358C 263.259 122.142 264.813 116.177 267.921 110.462C 271.079 104.697 275.616 100.16 281.531 96.8516C 287.497 93.543 294.34 91.8887 302.06 91.8887C 311.484 91.8887 319.856 96.25 327.175 104.973C 330.884 109.384 332.739 112.893 332.739 115.5L 276.042 136.028ZM 344.319 106.025L 344.395 104.672C 344.395 104.421 344.52 104.221 344.771 104.07C 345.071 103.87 345.247 103.744 345.297 103.694L 358.832 93.6934C 359.033 93.543 359.584 93.4678 360.486 93.4678C 361.439 93.4678 362.09 93.5931 362.441 93.8438C 362.792 94.0443 362.968 94.696 362.968 95.7988L 362.968 108.732C 363.269 108.231 363.67 107.68 364.171 107.078C 367.78 102.566 371.54 99.0824 375.45 96.626C 379.36 94.1696 383.822 92.9414 388.835 92.9414C 390.439 92.9414 391.316 93.1419 391.467 93.543C 392.319 95.849 393.021 98.0296 393.572 100.085L 395.903 108.958C 396.054 109.509 395.653 110.061 394.7 110.612C 393.798 111.114 393.096 111.339 392.595 111.289C 392.093 111.239 391.567 110.763 391.016 109.86L 390.188 108.507C 387.481 106 384.323 105.023 380.714 105.574C 377.155 106.076 373.771 107.379 370.562 109.484C 367.404 111.59 365.073 113.871 363.569 116.327C 363.519 116.427 363.394 116.628 363.193 116.929C 363.043 117.179 362.968 117.355 362.968 117.455L 362.968 151.97C 362.968 152.22 362.943 152.772 362.893 153.624C 362.893 154.426 362.893 154.952 362.893 155.203C 363.294 158.361 364.371 160.316 366.126 161.068C 367.881 161.82 368.783 162.472 368.833 163.023C 368.833 164.427 368.507 165.129 367.855 165.129L 345.598 165.129C 344.946 165.129 344.62 164.678 344.62 163.775C 344.62 162.873 344.821 162.297 345.222 162.046C 345.623 161.795 346.124 161.545 346.726 161.294C 347.377 161.043 347.879 160.743 348.229 160.392C 348.981 159.64 349.558 158.787 349.959 157.835C 350.41 156.832 350.611 155.654 350.561 154.301C 350.561 152.947 350.561 152.17 350.561 151.97L 350.561 112.191C 350.51 110.537 350.084 109.384 349.282 108.732C 348.53 108.031 347.703 107.655 346.801 107.604C 345.898 107.554 345.297 107.429 344.996 107.229C 344.545 106.878 344.319 106.477 344.319 106.025ZM 461.236 80.083C 461.386 79.0804 462.289 78.5791 463.943 78.5791C 465.647 78.5791 466.5 79.0804 466.5 80.083L 466.5 93.4678L 479.809 93.4678C 482.366 93.4678 483.644 93.7936 483.644 94.4453L 483.644 101.062C 483.644 101.714 482.366 102.04 479.809 102.04L 466.5 102.04L 466.5 148.736C 466.5 154.702 468.254 158.035 471.763 158.737C 474.42 159.289 477.177 158.286 480.035 155.729C 481.188 154.677 481.99 154.426 482.441 154.978C 482.942 155.529 483.293 155.955 483.494 156.256C 483.694 156.557 483.795 156.857 483.795 157.158C 483.795 157.409 483.795 157.609 483.795 157.76C 483.845 158.01 483.569 158.437 482.967 159.038L 481.388 160.392C 476.175 164.903 471.087 166.959 466.124 166.558C 461.211 166.157 457.752 163.274 455.747 157.91C 454.644 155.003 454.092 151.468 454.092 147.308L 454.092 102.04L 450.633 102.04C 448.077 102.04 446.799 101.714 446.799 101.062L 446.799 94.4453C 446.799 93.7936 447.851 93.4678 449.957 93.4678C 453.666 93.4678 456.323 92.1644 457.927 89.5576C 459.582 86.9508 460.685 83.7926 461.236 80.083ZM 498.076 54.5166L 498.151 53.1631C 498.151 53.0127 498.452 52.6868 499.053 52.1855L 512.588 42.1846C 512.789 42.0342 513.34 41.959 514.243 41.959C 515.145 41.959 515.772 42.0843 516.123 42.335C 516.473 42.5355 516.649 43.1872 516.649 44.29L 516.649 101.363C 518.353 100.361 519.632 99.6338 520.484 99.1826L 522.815 97.9795C 529.883 94.4704 536.425 92.7158 542.441 92.7158C 548.507 92.7158 554.472 94.8714 560.337 99.1826C 562.994 101.138 565.15 103.519 566.804 106.326C 568.509 109.083 569.361 111.966 569.361 114.974L 569.361 151.97C 569.361 152.22 569.336 152.772 569.286 153.624C 569.286 154.426 569.311 154.952 569.361 155.203C 569.712 158.411 570.765 160.392 572.519 161.144C 574.324 161.845 575.226 162.472 575.226 163.023C 575.226 164.427 574.9 165.129 574.249 165.129L 552.066 165.129C 551.414 165.129 551.088 164.678 551.088 163.775C 551.088 162.873 551.289 162.297 551.69 162.046C 552.091 161.795 552.617 161.545 553.269 161.294C 553.921 161.043 554.447 160.717 554.848 160.316C 555.249 159.915 555.6 159.464 555.901 158.963C 556.252 158.462 556.477 157.885 556.578 157.233C 556.728 156.582 556.803 156.105 556.803 155.805C 556.853 155.454 556.853 154.802 556.803 153.85C 556.803 152.897 556.803 152.271 556.803 151.97L 556.803 116.854C 556.803 113.796 555.776 111.139 553.72 108.883C 549.91 104.722 544.521 102.642 537.553 102.642C 530.635 102.642 523.667 104.396 516.649 107.905L 516.649 151.97C 516.649 152.22 516.624 152.772 516.574 153.624C 516.574 154.426 516.574 154.952 516.574 155.203C 516.975 158.411 518.053 160.392 519.807 161.144C 521.612 161.845 522.514 162.472 522.514 163.023C 522.514 164.427 522.188 165.129 521.537 165.129L 499.354 165.129C 498.702 165.129 498.376 164.678 498.376 163.775C 498.376 162.873 498.577 162.297 498.978 162.046C 499.379 161.795 499.905 161.545 500.557 161.294C 501.209 161.043 501.71 160.743 502.061 160.392C 503.615 158.838 504.367 157.108 504.317 155.203C 504.317 153.248 504.317 152.17 504.317 151.97L 504.317 60.6826C 504.317 59.0784 503.916 57.9255 503.114 57.2236C 502.312 56.5218 501.46 56.1458 500.557 56.0957C 499.655 56.0456 499.053 55.8952 498.752 55.6445C 498.301 55.3438 498.076 54.9678 498.076 54.5166ZM 597.033 146.104C 597.033 149.463 598.486 151.995 601.394 153.699C 604.302 155.354 607.259 156.181 610.267 156.181C 613.275 156.181 615.506 156.055 616.959 155.805C 618.463 155.554 619.992 155.103 621.546 154.451C 624.454 153.248 627.036 151.995 629.292 150.691C 629.292 150.691 630.47 150.04 632.826 148.736L 628.464 128.734C 626.66 129.436 624.429 130.213 621.772 131.065L 614.553 133.321C 602.873 136.83 597.033 141.091 597.033 146.104ZM 627.036 120.989C 625.532 107.254 621.546 100.386 615.08 100.386C 611.119 100.386 607.66 101.814 604.703 104.672C 601.795 107.479 600.341 110.788 600.341 114.598L 601.018 117.681C 601.018 118.082 600.517 118.708 599.514 119.561C 598.562 120.413 597.91 120.688 597.559 120.388L 588.836 109.184C 588.836 108.532 589.388 107.805 590.491 107.003C 591.644 106.201 592.621 105.399 593.423 104.597L 595.228 102.867C 597.835 100.26 599.665 98.6061 600.717 97.9043L 604.402 95.498C 608.011 93.1419 612.022 91.9639 616.433 91.9639C 622.9 91.9639 627.813 93.7184 631.171 97.2275C 633.477 99.6338 635.082 102.015 635.984 104.371C 636.886 106.677 637.538 108.557 637.939 110.011C 638.791 113.119 639.493 116.728 640.044 120.839L 640.872 126.629C 641.172 128.935 641.473 131.09 641.774 133.096C 642.125 135.101 642.35 136.479 642.451 137.231C 642.551 137.933 642.802 139.212 643.203 141.066C 643.604 142.871 643.98 144.375 644.331 145.578C 645.383 149.137 646.611 151.819 648.015 153.624C 649.419 155.379 650.973 156.256 652.677 156.256C 654.432 156.256 655.66 155.755 656.362 154.752C 657.665 152.847 658.618 151.895 659.219 151.895C 659.52 151.895 660.021 152.245 660.723 152.947C 661.425 153.649 661.776 154.175 661.776 154.526C 661.776 154.877 660.974 156.055 659.37 158.061C 657.816 160.016 656.036 161.946 654.031 163.851C 652.076 165.756 650.672 166.708 649.82 166.708C 646.611 166.708 643.554 165.455 640.646 162.948C 637.789 160.392 636.034 157.71 635.382 154.902C 633.728 156.406 630.921 158.236 626.96 160.392C 619.14 164.603 612.874 166.708 608.162 166.708C 603.449 166.708 599.464 166.031 596.206 164.678C 592.997 163.324 590.315 161.244 588.16 158.437C 586.054 155.629 585.001 152.697 585.001 149.639C 585.001 146.581 585.428 144.024 586.28 141.969C 587.132 139.913 588.235 138.159 589.588 136.705C 590.942 135.201 592.621 133.823 594.626 132.569C 596.632 131.266 598.662 130.188 600.717 129.336C 605.028 127.581 609.791 126.027 615.004 124.674C 620.268 123.27 624.278 122.042 627.036 120.989ZM 667.006 165.129C 666.355 165.129 666.029 164.678 666.029 163.775C 666.029 162.873 666.229 162.297 666.63 162.046C 667.082 161.795 667.608 161.545 668.21 161.294C 668.861 161.043 669.363 160.743 669.714 160.392C 671.268 158.838 672.019 157.108 671.969 155.203C 671.969 153.248 671.969 152.17 671.969 151.97L 671.969 112.191C 671.969 110.587 671.568 109.434 670.766 108.732C 669.964 108.031 669.112 107.655 668.21 107.604C 667.307 107.554 666.706 107.429 666.405 107.229C 666.154 106.978 665.979 106.752 665.879 106.552C 665.828 106.351 665.778 106.176 665.728 106.025C 665.728 105.875 665.728 105.649 665.728 105.349C 665.778 105.048 665.803 104.822 665.803 104.672C 665.803 104.521 665.828 104.396 665.879 104.296C 665.979 104.196 666.129 104.095 666.33 103.995C 666.53 103.845 666.656 103.744 666.706 103.694L 680.241 93.6934C 680.441 93.543 680.993 93.4678 681.895 93.4678C 682.797 93.4678 683.449 93.5931 683.85 93.8438C 684.251 94.0443 684.452 94.696 684.452 95.7988L 684.452 101.363L 688.287 99.1074L 690.543 97.9795C 697.511 94.4704 704.028 92.7158 710.093 92.7158C 716.159 92.7158 722.125 94.8714 727.99 99.1826C 730.647 101.138 732.802 103.519 734.457 106.326C 736.161 109.083 737.013 111.966 737.013 114.974L 737.013 155.203C 737.013 156.306 737.314 157.484 737.916 158.737C 738.517 159.94 739.495 160.818 740.848 161.369C 742.202 161.921 742.879 162.472 742.879 163.023C 742.879 164.427 742.553 165.129 741.901 165.129L 719.869 165.129C 719.217 165.129 718.891 164.678 718.891 163.775C 718.891 162.873 719.092 162.297 719.493 162.046C 719.944 161.795 720.47 161.545 721.072 161.294C 721.724 161.043 722.25 160.717 722.651 160.316C 723.102 159.915 723.478 159.464 723.779 158.963C 724.08 158.462 724.28 157.885 724.38 157.233C 724.531 156.532 724.606 156.03 724.606 155.729C 724.656 155.379 724.656 154.752 724.606 153.85C 724.606 152.897 724.606 152.271 724.606 151.97L 724.606 116.854C 724.606 113.846 723.603 111.214 721.598 108.958C 717.738 104.747 712.324 102.642 705.356 102.642C 698.388 102.642 691.395 104.396 684.377 107.905L 684.377 155.203C 684.377 156.306 684.677 157.484 685.279 158.737C 685.88 159.94 686.858 160.818 688.212 161.369C 689.565 161.921 690.242 162.472 690.242 163.023C 690.242 164.427 689.916 165.129 689.264 165.129L 667.006 165.129ZM 886.905 41.959C 887.406 41.959 887.832 42.6107 888.183 43.9141C 888.534 45.1673 889.161 46.9469 890.063 49.2529C 890.063 49.2529 890.865 51.2832 892.469 55.3438C 893.171 57.0983 893.522 58.0758 893.522 58.2764C 893.522 58.4769 893.146 58.7025 892.394 58.9531C 891.692 59.2038 891.241 59.3291 891.04 59.3291C 890.689 59.3291 890.238 58.9782 889.687 58.2764C 889.186 57.5244 888.283 56.6471 886.98 55.6445C 885.727 54.6419 882.268 54.1406 876.603 54.1406L 834.268 54.1406L 834.268 151.97C 834.268 155.629 835.471 158.662 837.877 161.068C 838.078 161.269 838.504 161.52 839.156 161.82C 839.807 162.121 840.133 162.748 840.133 163.7C 840.133 164.653 839.807 165.129 839.156 165.129L 814.792 165.129C 814.141 165.129 813.815 164.703 813.815 163.851C 813.815 162.948 813.915 162.422 814.116 162.271C 814.366 162.071 814.692 161.896 815.093 161.745C 815.494 161.545 815.995 161.144 816.597 160.542C 817.249 159.89 817.925 158.737 818.627 157.083C 819.329 155.379 819.68 153.674 819.68 151.97L 819.68 54.1406L 777.345 54.1406C 770.277 54.1406 766.016 55.3438 764.562 57.75C 763.86 58.7526 763.359 59.279 763.058 59.3291C 762.757 59.3291 762.231 59.2038 761.479 58.9531C 760.777 58.7025 760.426 58.4769 760.426 58.2764C 760.426 58.0758 760.777 57.0983 761.479 55.3438L 763.885 49.2529C 764.787 46.9971 765.389 45.2926 765.69 44.1396C 766.041 42.9365 766.492 42.2096 767.043 41.959L 886.905 41.959ZM 875.842 106.025L 875.917 104.672C 875.917 104.421 876.042 104.221 876.293 104.07C 876.594 103.87 876.769 103.744 876.819 103.694L 890.355 93.6934C 890.555 93.543 891.107 93.4678 892.009 93.4678C 892.961 93.4678 893.613 93.5931 893.964 93.8438C 894.315 94.0443 894.49 94.696 894.49 95.7988L 894.49 108.732C 894.791 108.231 895.192 107.68 895.693 107.078C 899.303 102.566 903.063 99.0824 906.973 96.626C 910.883 94.1696 915.345 92.9414 920.358 92.9414C 921.962 92.9414 922.839 93.1419 922.989 93.543C 923.842 95.849 924.543 98.0296 925.095 100.085L 927.426 108.958C 927.576 109.509 927.175 110.061 926.223 110.612C 925.32 111.114 924.619 111.339 924.117 111.289C 923.616 111.239 923.09 110.763 922.538 109.86L 921.711 108.507C 919.004 106 915.846 105.023 912.236 105.574C 908.677 106.076 905.293 107.379 902.085 109.484C 898.927 111.59 896.596 113.871 895.092 116.327C 895.042 116.427 894.916 116.628 894.716 116.929C 894.566 117.179 894.49 117.355 894.49 117.455L 894.49 151.97C 894.49 152.22 894.465 152.772 894.415 153.624C 894.415 154.426 894.415 154.952 894.415 155.203C 894.816 158.361 895.894 160.316 897.649 161.068C 899.403 161.82 900.305 162.472 900.356 163.023C 900.356 164.427 900.03 165.129 899.378 165.129L 877.12 165.129C 876.469 165.129 876.143 164.678 876.143 163.775C 876.143 162.873 876.343 162.297 876.744 162.046C 877.145 161.795 877.647 161.545 878.248 161.294C 878.9 161.043 879.401 160.743 879.752 160.392C 880.504 159.64 881.081 158.787 881.482 157.835C 881.933 156.832 882.133 155.654 882.083 154.301C 882.083 152.947 882.083 152.17 882.083 151.97L 882.083 112.191C 882.033 110.537 881.607 109.384 880.805 108.732C 880.053 108.031 879.226 107.655 878.323 107.604C 877.421 107.554 876.819 107.429 876.519 107.229C 876.068 106.878 875.842 106.477 875.842 106.025ZM 963.059 56.0205L 963.059 62.1113C 963.059 62.6126 962.934 62.9635 962.683 63.1641C 962.433 63.3646 961.355 63.8158 959.45 64.5176C 957.595 65.2194 956.217 65.7959 955.314 66.2471C 954.412 66.6982 953.635 67.0241 952.983 67.2246C 952.382 67.4251 952.006 67.4502 951.855 67.2998C 951.705 67.0993 951.63 66.1217 951.63 64.3672L 951.63 57.2236C 951.63 57.0732 951.605 56.8477 951.555 56.5469C 951.555 56.2461 951.555 56.0456 951.555 55.9453C 951.605 55.845 951.63 55.6947 951.63 55.4941C 951.68 55.2936 951.805 55.0931 952.006 54.8926C 952.206 54.6921 953.234 54.2409 955.089 53.5391C 956.994 52.8372 958.397 52.2607 959.3 51.8096C 961.355 50.8571 962.483 50.5062 962.683 50.7568C 962.934 50.9574 963.059 52.7119 963.059 56.0205ZM 945.915 165.129C 945.263 165.129 944.937 164.678 944.937 163.775C 944.937 162.873 945.138 162.297 945.539 162.046C 945.94 161.795 946.466 161.545 947.118 161.294C 949.574 160.291 950.828 157.885 950.878 154.075L 950.878 112.191C 950.878 110.587 950.477 109.434 949.675 108.732C 948.873 108.031 948.02 107.655 947.118 107.604C 946.216 107.554 945.589 107.404 945.238 107.153C 944.887 106.903 944.712 106.401 944.712 105.649C 944.712 104.847 944.737 104.396 944.787 104.296C 944.887 104.196 945.038 104.095 945.238 103.995C 945.439 103.845 945.564 103.744 945.614 103.694L 959.149 93.6934C 959.5 93.4427 959.776 93.3926 959.976 93.543C 960.177 93.6432 960.779 93.8438 961.781 94.1445C 962.784 94.4453 963.285 94.9967 963.285 95.7988L 963.285 154.376C 963.285 158.035 964.513 160.341 966.97 161.294C 968.423 161.896 969.15 162.472 969.15 163.023C 969.15 164.427 968.824 165.129 968.173 165.129L 945.915 165.129ZM 997.156 80.083C 997.306 79.0804 998.209 78.5791 999.863 78.5791C 1001.57 78.5791 1002.42 79.0804 1002.42 80.083L 1002.42 93.4678L 1015.73 93.4678C 1018.29 93.4678 1019.56 93.7936 1019.56 94.4453L 1019.56 101.062C 1019.56 101.714 1018.29 102.04 1015.73 102.04L 1002.42 102.04L 1002.42 148.736C 1002.42 154.702 1004.17 158.035 1007.68 158.737C 1010.34 159.289 1013.1 158.286 1015.95 155.729C 1017.11 154.677 1017.91 154.426 1018.36 154.978C 1018.86 155.529 1019.21 155.955 1019.41 156.256C 1019.61 156.557 1019.71 156.857 1019.71 157.158C 1019.71 157.409 1019.71 157.609 1019.71 157.76C 1019.76 158.01 1019.49 158.437 1018.89 159.038L 1017.31 160.392C 1012.09 164.903 1007.01 166.959 1002.04 166.558C 997.131 166.157 993.672 163.274 991.667 157.91C 990.564 155.003 990.012 151.468 990.012 147.308L 990.012 102.04L 986.553 102.04C 983.997 102.04 982.719 101.714 982.719 101.062L 982.719 94.4453C 982.719 93.7936 983.771 93.4678 985.877 93.4678C 989.586 93.4678 992.243 92.1644 993.847 89.5576C 995.502 86.9508 996.605 83.7926 997.156 80.083ZM 1049.9 105.198C 1046.64 107.254 1044.24 109.961 1042.68 113.319C 1041.13 116.628 1040.35 120.839 1040.35 125.952C 1040.35 131.065 1041.75 136.179 1044.56 141.292C 1047.42 146.405 1051.3 150.466 1056.22 153.474C 1061.18 156.431 1066.09 157.91 1070.96 157.91C 1075.87 157.91 1079.85 156.807 1082.91 154.602C 1086.02 152.396 1088.38 149.538 1089.98 146.029C 1091.63 142.52 1092.46 138.66 1092.46 134.449C 1092.46 125.576 1089.63 117.956 1083.96 111.59C 1078.35 105.223 1070.81 102.04 1061.33 102.04C 1056.97 102.04 1053.16 103.093 1049.9 105.198ZM 1040.58 155.955C 1037.27 152.747 1034.59 148.887 1032.53 144.375C 1030.53 139.863 1029.52 134.524 1029.52 128.358C 1029.52 122.192 1031.1 116.202 1034.26 110.387C 1037.42 104.572 1041.96 100.035 1047.87 96.7764C 1053.79 93.5179 1059.93 91.8887 1066.29 91.8887C 1077.92 91.8887 1087.17 95.5482 1094.04 102.867C 1100.91 110.136 1104.34 118.984 1104.34 129.411C 1104.39 139.838 1100.78 148.636 1093.51 155.805C 1086.25 162.923 1077.07 166.482 1065.99 166.482C 1061.28 166.482 1056.69 165.53 1052.23 163.625C 1047.82 161.72 1043.94 159.163 1040.58 155.955ZM 1116.07 165.129C 1115.42 165.129 1115.1 164.678 1115.1 163.775C 1115.1 162.873 1115.3 162.297 1115.7 162.046C 1116.15 161.795 1116.67 161.545 1117.28 161.294C 1117.93 161.043 1118.43 160.743 1118.78 160.392C 1120.33 158.838 1121.09 157.108 1121.04 155.203C 1121.04 153.248 1121.04 152.17 1121.04 151.97L 1121.04 112.191C 1121.04 110.587 1120.63 109.434 1119.83 108.732C 1119.03 108.031 1118.18 107.655 1117.28 107.604C 1116.37 107.554 1115.77 107.429 1115.47 107.229C 1115.22 106.978 1115.05 106.752 1114.94 106.552C 1114.89 106.351 1114.84 106.176 1114.79 106.025C 1114.79 105.875 1114.79 105.649 1114.79 105.349C 1114.84 105.048 1114.87 104.822 1114.87 104.672C 1114.87 104.521 1114.89 104.396 1114.94 104.296C 1115.05 104.196 1115.2 104.095 1115.4 103.995C 1115.6 103.845 1115.72 103.744 1115.77 103.694L 1129.31 93.6934C 1129.51 93.543 1130.06 93.4678 1130.96 93.4678C 1131.86 93.4678 1132.52 93.5931 1132.92 93.8438C 1133.32 94.0443 1133.52 94.696 1133.52 95.7988L 1133.52 101.363L 1137.35 99.1074L 1139.61 97.9795C 1146.58 94.4704 1153.09 92.7158 1159.16 92.7158C 1165.23 92.7158 1171.19 94.8714 1177.06 99.1826C 1179.71 101.138 1181.87 103.519 1183.52 106.326C 1185.23 109.083 1186.08 111.966 1186.08 114.974L 1186.08 155.203C 1186.08 156.306 1186.38 157.484 1186.98 158.737C 1187.58 159.94 1188.56 160.818 1189.91 161.369C 1191.27 161.921 1191.94 162.472 1191.94 163.023C 1191.94 164.427 1191.62 165.129 1190.97 165.129L 1168.94 165.129C 1168.28 165.129 1167.96 164.678 1167.96 163.775C 1167.96 162.873 1168.16 162.297 1168.56 162.046C 1169.01 161.795 1169.54 161.545 1170.14 161.294C 1170.79 161.043 1171.32 160.717 1171.72 160.316C 1172.17 159.915 1172.54 159.464 1172.85 158.963C 1173.15 158.462 1173.35 157.885 1173.45 157.233C 1173.6 156.532 1173.67 156.03 1173.67 155.729C 1173.72 155.379 1173.72 154.752 1173.67 153.85C 1173.67 152.897 1173.67 152.271 1173.67 151.97L 1173.67 116.854C 1173.67 113.846 1172.67 111.214 1170.66 108.958C 1166.8 104.747 1161.39 102.642 1154.42 102.642C 1147.45 102.642 1140.46 104.396 1133.44 107.905L 1133.44 155.203C 1133.44 156.306 1133.74 157.484 1134.35 158.737C 1134.95 159.94 1135.92 160.818 1137.28 161.369C 1138.63 161.921 1139.31 162.472 1139.31 163.023C 1139.31 164.427 1138.98 165.129 1138.33 165.129L 1116.07 165.129Z"/>
</defs>
</svg>
