<?xml version="1.0" encoding="utf-8"?>
<!DOCTYPE svg PUBLIC "-//W3C//DTD SVG 1.1//EN" "http://www.w3.org/Graphics/SVG/1.1/DTD/svg11.dtd">
<svg version="1.1" xmlns="http://www.w3.org/2000/svg" xmlns:xlink="http://www.w3.org/1999/xlink" x="0px" y="0px" width="78px" height="70px" viewBox="0 0 78 70" enable-background="new 0 0 78 70" xml:space="preserve">
<path fill="none" stroke="#BFBFBF" stroke-miterlimit="8" d="M11.033,2.198c4.152,3.625,8.142,8.863,8.976,13.125
	c0.495-1.848,1.78-4.55,1.78-4.55l27.49,18.981l-32.246,3.004c0,0,0.373-2.968,0.951-4.789c-2.998,3.141-9.179,5.407-14.629,6.229
	c5.45,0.821,11.631,3.085,14.629,6.229c-0.578-1.822-0.951-4.792-0.951-4.792l32.316,3.006l-27.56,18.982v-0.001
	c0,0-1.285-2.703-1.78-4.55c-0.834,4.263-4.824,9.5-8.976,13.125l64.001-31.999L11.033,2.198z"/>
</svg>
