<?xml version="1.0" encoding="utf-8"?>
<!DOCTYPE svg PUBLIC "-//W3C//DTD SVG 1.1//EN" "http://www.w3.org/Graphics/SVG/1.1/DTD/svg11.dtd">
<svg version="1.1" xmlns="http://www.w3.org/2000/svg" xmlns:xlink="http://www.w3.org/1999/xlink" x="0px" y="0px" width="108px" height="108px" viewBox="20 20 108 108" enable-background="new 20 20 108 108" xml:space="preserve">
<defs>
	<filter id="blur" x="-40%" width="180%" y="-40%" height="180%">
  		<feGaussianBlur in="SourceGraphic" stdDeviation="9" />
	</filter>
</defs>
<g>
	<defs>
		<rect id="SVGID_1_" x="20" y="20" width="108" height="108"/>
	</defs>
	<clipPath id="SVGID_2_">
		<use xlink:href="#SVGID_1_"  overflow="visible"/>
	</clipPath>
	<rect clip-path="url(#SVGID_2_)" fill="#474747" width="148" height="148"/>
	<path opacity="0.14" clip-path="url(#SVGID_2_)" fill="#4AF26D" d="M102.176,133.453c-0.877-17.518,6.711-34.623-40.815-32.184
		c-50.187,2.576,47.524-27.757,71.907,3.342C157.652,135.71,102.646,142.824,102.176,133.453z" filter="url(#blur)"/>
	<path opacity="0.23" clip-path="url(#SVGID_2_)" fill="#4AB6FF" d="M17.034,51.763c12.714-12.714,30.593-36.155,37.745-17.481
		c7.152,18.673,4.371,52.046-10.33,46.484c-14.701-5.562-30.594,5.166-8.344,11.521c22.25,6.357,63.57-7.547,42.91-39.729
		C65.292,31.181,42.806,15.619,26.688,15.619C14.523,15.619,15.017,53.78,17.034,51.763z" filter="url(#blur)"/>
	<path opacity="0.32" clip-path="url(#SVGID_2_)" fill="#FF66FB" d="M137.68,23.014c-12.711,20.018-40.924,21.852-29.203,3.376
		C120.197,7.915,144.996,11.491,137.68,23.014z" filter="url(#blur)"/>
</g>
<path fill="#FFFFFF" d="M47.111,43.446c3.965,3.461,7.774,8.463,8.571,12.531c0.472-1.764,1.699-4.344,1.699-4.344l26.248,18.123
	l-30.788,2.869c0,0,0.355-2.834,0.907-4.572C50.886,71.051,44.984,73.215,39.78,74c5.204,0.783,11.106,2.944,13.968,5.946
	c-0.551-1.74-0.907-4.574-0.907-4.574l30.854,2.869L57.381,96.365l0,0c0,0-1.227-2.582-1.699-4.344
	c-0.796,4.068-4.606,9.07-8.571,12.531L108.221,74L47.111,43.446z"/>
</svg>
