<?xml version="1.0" standalone="no"?>
<!DOCTYPE svg PUBLIC "-//W3C//DTD SVG 20010904//EN"
 "http://www.w3.org/TR/2001/REC-SVG-20010904/DTD/svg10.dtd">
<svg version="1.0" xmlns="http://www.w3.org/2000/svg"
 width="700.000000pt" height="700.000000pt" viewBox="0 0 700.000000 700.000000"
 preserveAspectRatio="xMidYMid meet">
<metadata>
Created by potrace 1.11, written by Peter Selinger 2001-2013
</metadata>
<g transform="translate(0.000000,700.000000) scale(0.100000,-0.100000)"
fill="#000000" stroke="none">
<path d="M0 3500 l0 -3500 3500 0 3500 0 0 3500 0 3500 -3500 0 -3500 0 0
-3500z m3745 988 c1081 -541 1965 -985 1965 -988 0 -5 -3925 -1970 -3935
-1970 -3 0 27 30 66 68 88 83 210 227 290 345 67 97 153 271 164 330 4 20 11
39 15 42 4 2 22 -35 39 -83 17 -48 41 -108 54 -134 l22 -47 837 577 c461 318
842 582 848 588 6 6 -317 40 -982 102 -546 50 -993 90 -996 88 -5 -6 36 -229
48 -260 12 -34 8 -33 -37 8 -92 82 -244 166 -413 229 -104 39 -297 92 -372
103 -27 3 -48 10 -48 14 0 4 21 11 48 14 75 11 268 64 372 103 169 63 321 147
413 229 45 41 49 42 37 8 -12 -32 -53 -255 -47 -260 2 -2 435 36 963 86 527
49 974 90 993 92 32 3 -32 49 -815 589 -808 559 -850 586 -860 565 -10 -18
-70 -167 -94 -231 -5 -15 -12 -4 -29 49 -63 196 -251 471 -450 659 -39 37 -69
67 -66 67 3 0 889 -442 1970 -982z"/>
</g>
</svg>
